#!OML:ASF E:\Style4\Style4.ASF
:FULLY-SPECIFIED
:DEGREES
3122
root 0.228972 17.2745 -2.08544 3.21736 -4.58949 2.38683
lowerback 17.694 2.98515 -1.85081
upperback 13.1079 3.61125 0.10906
thorax 4.08882 1.67419 0.656137
lowerneck 8.10776 -3.95728 -7.88238
upperneck -0.645908 -5.76596 8.3595
head -1.1433 -3.02938 4.37611
rclavicle 1.43125e-014 -8.34896e-015
rhumerus 29.556 10.701 -74.3705
rradius 123.005
rwrist 13.2456
rhand 29.1959 -9.43053
rfingers 7.12502
rthumb 52.9826 -28.9339
lclavicle 1.43125e-014 -8.34896e-015
lhumerus 33.3821 -11.5138 67.1792
lradius 135.564
lwrist 2.01435
lhand 31.9638 43.5363
lfingers 7.12502
lthumb 55.4633 61.3345
rfemur -30.2983 -4.8355 16.6318
rtibia 45.2167
rfoot -16.641 -13.7717
rtoes -12.1436
lfemur -28.7617 7.13063 -22.4304
ltibia 44.5243
lfoot -20.3963 10.5981
ltoes -8.54962
3123
root 0.225442 17.2753 -2.08929 3.25816 -4.41838 2.25085
lowerback 17.61 2.83885 -1.98231
upperback 13.1103 3.40758 0.136625
thorax 4.13057 1.56105 0.791014
lowerneck 8.12941 -3.83571 -8.24494
upperneck -0.619883 -5.64173 8.35613
head -1.14104 -2.96639 4.44477
rclavicle 1.19271e-015 -4.77083e-015
rhumerus 28.6975 10.9482 -74.4356
rradius 123.373
rwrist 12.9378
rhand 29.5111 -9.59759
rfingers 7.12502
rthumb 53.2669 -28.9195
lclavicle 1.19271e-015 -4.77083e-015
lhumerus 34.0614 -11.0037 67.3627
lradius 135.45
lwrist 1.52256
lhand 31.4378 43.0566
lfingers 7.12502
lthumb 54.9947 61.1991
rfemur -30.258 -5.00915 16.8035
rtibia 45.1436
rfoot -16.6859 -13.7872
rtoes -11.998
lfemur -28.7648 6.96128 -22.278
ltibia 44.4406
lfoot -20.2971 10.5912
ltoes -8.69544
3124
root 0.22226 17.2787 -2.09243 3.27434 -4.24539 2.18558
lowerback 17.5595 2.76135 -2.08029
upperback 13.1201 3.29848 0.0692616
thorax 4.1697 1.50251 0.792267
lowerneck 8.26599 -3.80177 -8.34111
upperneck -0.856106 -5.60059 8.74505
head -1.1066 -2.96464 4.14432
rclavicle -3.57812e-014 1.39149e-014
rhumerus 27.6761 10.9082 -74.5871
rradius 123.902
rwrist 12.2224
rhand 29.6464 -9.98646
rfingers 7.12502
rthumb 53.3888 -29.2295
lclavicle -3.57812e-014 1.39149e-014
lhumerus 34.7692 -10.7442 67.4443
lradius 135.39
lwrist 1.01386
lhand 30.4239 42.8649
lfingers 7.12502
lthumb 54.0877 61.6434
rfemur -30.2024 -5.15159 16.879
rtibia 45.0819
rfoot -16.743 -13.7865
rtoes -11.7878
lfemur -28.7344 6.80212 -22.204
ltibia 44.3343
lfoot -20.1575 10.5404
ltoes -8.58775
3125
root 0.217351 17.2806 -2.09668 3.26841 -4.05442 2.15558
lowerback 17.6047 2.70877 -2.20378
upperback 13.1067 3.21548 -0.00173024
thorax 4.13248 1.45658 0.795375
lowerneck 8.33579 -3.78879 -8.55005
upperneck -0.932595 -5.60243 8.86774
head -1.1311 -2.96923 4.21859
rclavicle 9.93923e-016 -1.98785e-015
rhumerus 26.4756 10.8426 -74.7524
rradius 124.589
rwrist 11.2758
rhand 29.7987 -10.1311
rfingers 7.12502
rthumb 53.5259 -29.2847
lclavicle 9.93923e-016 -1.98785e-015
lhumerus 35.5999 -10.5949 67.531
lradius 135.023
lwrist 0.17795
lhand 29.1283 42.4989
lfingers 7.12502
lthumb 52.9216 62.0407
rfemur -30.1364 -5.23277 16.9223
rtibia 45.0301
rfoot -16.7473 -13.8763
rtoes -11.8444
lfemur -28.7124 6.66639 -22.1589
ltibia 44.2369
lfoot -20.0238 10.52
ltoes -8.70588
3126
root 0.212137 17.2807 -2.10087 3.26596 -3.87029 2.13309
lowerback 17.6615 2.67455 -2.33107
upperback 13.1068 3.15572 -0.0944323
thorax 4.10511 1.42295 0.774426
lowerneck 8.18161 -3.77529 -8.4696
upperneck -0.87598 -5.5722 8.73884
head -1.09792 -2.9484 4.16067
rclavicle -2.60408e-014 2.3059e-014
rhumerus 25.2233 10.741 -75.0108
rradius 125.387
rwrist 10.27
rhand 30.1665 -10.0919
rfingers 7.12502
rthumb 53.8565 -29.0265
lclavicle -2.60408e-014 2.3059e-014
lhumerus 36.5618 -10.4153 67.6551
lradius 134.297
lwrist -0.830412
lhand 28.0628 41.5132
lfingers 7.12502
lthumb 51.9571 61.6443
rfemur -30.0813 -5.27935 16.9589
rtibia 44.9983
rfoot -16.82 -13.9605
rtoes -11.715
lfemur -28.6973 6.59184 -22.1171
ltibia 44.1338
lfoot -19.9168 10.3959
ltoes -8.51992
3127
root 0.207468 17.2844 -2.10391 3.27295 -3.64785 2.08552
lowerback 17.6916 2.56759 -2.44044
upperback 13.1025 3.0045 -0.183393
thorax 4.08975 1.34426 0.761366
lowerneck 8.00187 -3.65124 -8.47287
upperneck -0.677789 -5.41167 8.22223
head -1.15658 -2.8458 4.43465
rclavicle -5.96354e-015 1.11319e-014
rhumerus 24.2689 10.7777 -75.3084
rradius 126.032
rwrist 9.26394
rhand 30.657 -10.2322
rfingers 7.12502
rthumb 54.2966 -28.8677
lclavicle -5.96354e-015 1.11319e-014
lhumerus 37.3092 -10.0446 67.7768
lradius 133.411
lwrist -2.08142
lhand 27.0875 40.1665
lfingers 7.12502
lthumb 51.0705 60.8085
rfemur -30.0175 -5.29934 17.0082
rtibia 44.9659
rfoot -16.9606 -14.0523
rtoes -11.1346
lfemur -28.6905 6.52621 -22.0619
ltibia 44.0217
lfoot -19.7255 10.3566
ltoes -8.98325
